# xmcd
#
# Track frame offsets:
#	150
#	14543
#	27432
#	41795
#	53810
#	64755
#	76822
#	91725
#	104623
#	115932
#	127853
#	143205
#	156923
#	170363
#	181590
#	196280
#	210395
#	223777
#	234848
#	249232
#
# Disc length: 3517 seconds
#
# Revision: 0
# Processed by: cddbd v1.4PL0 Copyright (c) Steve Scherf et al.
# Submitted via: dBpowerAMP V4.0
#
DISCID=070dbb14
DTITLE=José Alfredo Jiménez - Personalidad 20 Exitos
DYEAR=1994
DGENRE=
TTITLE0=Tu Y Las Nubes
TTITLE1=Cuando El Destino
TTITLE2=La Estrella De Jalisco
TTITLE3=El Caballo Blanco
TTITLE4=Cuando Los Años Pasen
TTITLE5=Esta Noche
TTITLE6=Amarga Navidad
TTITLE7=Guitarras De Media Noche
TTITLE8=Ahora Soy Rico
TTITLE9=Aguascalientes
TTITLE10=La Del Rebozo Blanco
TTITLE11=Mi Tenampa
TTITLE12=Los Gavilanes
TTITLE13=Mis Ojos Me Denuncian
TTITLE14=Virgencita De Zapopan
TTITLE15=Sonaron Cuatro Balazos
TTITLE16=Tu Enamorado
TTITLE17=Viejos Amigos
TTITLE18=Camino Viejo
TTITLE19=Adios A Pedro Infante
EXTD=
EXTT0=
EXTT1=
EXTT2=
EXTT3=
EXTT4=
EXTT5=
EXTT6=
EXTT7=
EXTT8=
EXTT9=
EXTT10=
EXTT11=
EXTT12=
EXTT13=
EXTT14=
EXTT15=
EXTT16=
EXTT17=
EXTT18=
EXTT19=
PLAYORDER=
